<svg id="Capa_1" enable-background="new 0 0 512 512" height="512" viewBox="0 0 512 512" width="512" xmlns="http://www.w3.org/2000/svg"><path d="m287.018 61.224c-.03-4.127 1.615-7.607 4.392-10.51 11.537-12.057 23.878-23.131 38.507-31.419 23.951-13.57 49.666-19.801 77.164-18.769 16.803.631 32.971 4.227 48.508 10.566 13.83 5.643 26.526 13.258 37.806 23.072 5.078 4.418 9.968 9.086 14.624 13.946 7.739 8.079 3.586 21.927-7.267 24.561-6.494 1.576-11.751-.792-16.138-5.539-7.315-7.915-15.534-14.75-24.762-20.312-16.482-9.933-34.307-15.489-53.594-16.298-12.241-.513-24.276.693-36.038 4.097-12.983 3.757-24.929 9.624-35.908 17.595-7.824 5.68-14.431 12.608-21.257 19.333-3.721 3.666-8.071 5.299-13.282 4.513-7.33-1.106-12.763-7.416-12.755-14.836z" fill="#0593fc"/><path d="m390.534 61.524c15.686-2.014 31.711.092 46.175 6.488.778.344 1.553.7 2.325 1.066 12.219 5.806 22.472 14.274 31.179 24.567 5.162 6.102 4.913 14.347-.271 20.849-4.404 5.525-12.833 7.582-19.325 3.89-3.884-2.209-7.195-5.546-10.471-8.682-14.551-13.926-31.498-18.99-51.22-14.281-10.962 2.618-19.656 8.834-27.381 16.78-3.105 3.194-6.35 6.463-10.103 8.767-6.228 3.824-14.683 2.092-19.51-3.237-5.211-5.753-6.036-14.461-1.349-20.502 3.197-4.12 7.036-7.772 10.805-11.412 13.334-12.882 29.779-21.579 48.372-24.191.257-.034.515-.069.774-.102z" fill="#0593fc"/><path d="m469.947 114.491c-4.407 5.529-12.839 7.588-19.326 3.892-3.892-2.203-7.197-5.539-10.471-8.68-.865-.834-1.75-1.637-2.636-2.399 6.497 2.687 14.291.453 18.523-4.86 5.416-6.785 5.673-15.393.288-21.766-.608-.71-1.215-1.421-1.833-2.121 5.745 4.386 10.965 9.462 15.722 15.084 5.159 6.107 4.912 14.354-.267 20.85z" fill="#0182fc"/><path d="m422.254 145.567c.534 11.195-8.097 22.329-21.276 22.955-11.444.544-22.51-8.015-23.182-21.253-.59-11.603 7.996-22.772 21.766-23.276 11.219-.41 22.299 8.342 22.692 21.574z" fill="#0593fc"/><path d="m500.752 72.672c-6.497 1.575-11.748-.793-16.134-5.539-1.987-2.152-4.036-4.222-6.167-6.209 3.357 1.977 7.166 2.667 11.511 1.617 10.986-2.667 15.197-16.69 7.362-24.876 3.686 3.357 7.259 6.847 10.698 10.44 7.741 8.083 3.582 21.931-7.27 24.567z" fill="#0182fc"/><path d="m400.973 168.525c-8.886.412-17.555-4.654-21.282-13.148 2.831 1.091 5.879 1.606 8.958 1.462 13.179-.628 21.818-11.758 21.282-22.96-.093-3.079-.762-5.91-1.884-8.443 7.743 2.965 13.92 10.317 14.209 20.129.534 11.202-8.094 22.333-21.283 22.96z" fill="#0182fc"/><path d="m288.995 141.087h-94.552c-5.517 0-10.543 3.17-12.919 8.148l-20.481 42.896h80.676 80.676l-20.481-42.896c-2.377-4.978-7.403-8.148-12.919-8.148z" fill="#fac600"/><path d="m322.392 192.131h-20.105l-20.486-42.896c-2.374-4.982-7.405-8.148-12.915-8.148h20.105c5.52 0 10.551 3.165 12.925 8.148z" fill="#e0ae10"/><path d="m68.827 302.019h-56.987c-6.485 0-11.742-5.257-11.742-11.742v-16.334c0-6.485 5.257-11.742 11.742-11.742h56.987z" fill="#5a5a5a"/><path d="m416.564 302.019h56.987c6.485 0 11.742-5.257 11.742-11.742v-16.334c0-6.485-5.257-11.742-11.742-11.742h-56.987z" fill="#5a5a5a"/><path d="m397.745 212.316c-6.967-13.654-21.001-22.248-36.33-22.248h-118.72-118.72c-15.328 0-29.363 8.594-36.33 22.248l-45.773 89.704h200.822 200.822z" fill="#8ac9fe"/><path d="m443.52 302.017h-26.035l-45.768-89.7c-6.965-13.657-21.004-22.244-36.331-22.244h26.035c15.328 0 29.356 8.587 36.322 22.244z" fill="#60b7ff"/><path d="m58.428 511.584h-39.975c-10.191 0-18.453-8.261-18.453-18.453v-116.732h76.881v116.733c0 10.191-8.262 18.452-18.453 18.452z" fill="#5a5a5a"/><path d="m466.938 511.584h-39.975c-10.191 0-18.453-8.262-18.453-18.453v-116.732h76.881v116.733c0 10.191-8.262 18.452-18.453 18.452z" fill="#5a5a5a"/><path d="m76.882 376.397v116.735c0 10.193-8.258 18.451-18.451 18.451h-20.541c10.193 0 18.451-8.258 18.451-18.451v-116.735z" fill="#444"/><path d="m485.391 376.397v116.735c0 10.193-8.258 18.451-18.451 18.451h-20.541c10.193 0 18.461-8.258 18.461-18.451v-116.735z" fill="#444"/><path d="m443.386 302.019h-200.69-200.691l-15.11 6.715c-16.355 7.27-26.895 23.489-26.895 41.386v35.186c0 9.466 3.573 18.583 10.004 25.529l59.091 63.819c5.541 5.985 13.328 9.387 21.484 9.387h152.116 152.116c8.156 0 15.943-3.402 21.484-9.387l59.091-63.819c6.431-6.946 10.004-16.063 10.004-25.529v-35.186c0-17.898-10.54-34.117-26.895-41.386z" fill="#fac600"/><g fill="#5a5a5a"><path d="m163.147 347.938c-4.143 0-7.5 3.358-7.5 7.5v20.099c0 4.142 3.357 7.5 7.5 7.5s7.5-3.358 7.5-7.5v-20.099c0-4.142-3.358-7.5-7.5-7.5z"/><path d="m195.119 347.938c-4.143 0-7.5 3.358-7.5 7.5v20.099c0 4.142 3.357 7.5 7.5 7.5s7.5-3.358 7.5-7.5v-20.099c0-4.142-3.357-7.5-7.5-7.5z"/><path d="m227.093 347.938c-4.143 0-7.5 3.358-7.5 7.5v20.099c0 4.142 3.357 7.5 7.5 7.5s7.5-3.358 7.5-7.5v-20.099c0-4.142-3.358-7.5-7.5-7.5z"/><path d="m259.066 347.938c-4.143 0-7.5 3.358-7.5 7.5v20.099c0 4.142 3.357 7.5 7.5 7.5s7.5-3.358 7.5-7.5v-20.099c0-4.142-3.357-7.5-7.5-7.5z"/><path d="m291.039 347.938c-4.143 0-7.5 3.358-7.5 7.5v20.099c0 4.142 3.357 7.5 7.5 7.5s7.5-3.358 7.5-7.5v-20.099c0-4.142-3.357-7.5-7.5-7.5z"/><path d="m323.013 347.938c-4.143 0-7.5 3.358-7.5 7.5v20.099c0 4.142 3.357 7.5 7.5 7.5s7.5-3.358 7.5-7.5v-20.099c0-4.142-3.358-7.5-7.5-7.5z"/></g><path d="m466.207 313.113c11.879 8.377 19.184 22.11 19.184 37.005v35.192c0 9.462-3.573 18.574-10.008 25.524l-59.09 63.815c-5.539 5.992-13.323 9.39-21.478 9.39h-304.24c-8.155 0-15.938-3.398-21.478-9.39l-14.209-15.341c4.355 2.419 9.308 3.727 14.394 3.727h315.325c8.268 0 16.165-3.449 21.776-9.514 17.019-18.378 33.771-36.469 50.781-54.837 7.702-8.319 10.059-14.682 9.936-26.626z" fill="#e0ae10"/><path d="m162.882 409.644c-4.597 0-7.828 4.524-6.337 8.872l10.222 29.813c.928 2.708 3.475 4.526 6.337 4.526h139.183c2.862 0 5.409-1.819 6.337-4.526l10.222-29.813c1.491-4.348-1.74-8.872-6.337-8.872z" fill="#5a5a5a"/><path d="m328.848 418.516-10.224 29.818c-.927 2.708-3.48 4.52-6.342 4.52h-139.173c-2.873 0-5.416-1.812-6.342-4.52l-3.974-11.604c.124.021.257.021.391.021h135.373c2.79 0 5.261-1.771 6.167-4.407l7.784-22.703h9.997c4.603-.001 7.826 4.53 6.343 8.875z" fill="#444"/><circle cx="85.762" cy="372.72" fill="#ebebeb" r="30.892"/><circle cx="399.629" cy="372.72" fill="#ebebeb" r="30.892"/><path d="m205.779 302.015h-27.985c0-15.454-12.53-27.985-27.995-27.985-15.454 0-27.985 12.53-27.985 27.985h-27.985c0-30.909 25.061-55.97 55.97-55.97 30.919 0 55.98 25.061 55.98 55.97z" fill="#5a5a5a"/></svg>